# xmcd
#
# Track frame offsets:
#	150
#	19565
#	55886
#	61987
#	81120
#	94873
#	116584
#	120144
#	144543
#	168601
#	194352
#	211555
#	226864
#	242710
#	264476
#	289044
#	306324
#
# Disc length: 4241 seconds
#
# Revision: 0
# Processed by: cddbd v1.5PL3 Copyright (c) Steve Scherf et al.
# Submitted via: dBpowerAMP V4.0
#
DISCID=e2108f11
DTITLE=Bob Dylan - The days before hard rain
DYEAR=1900
DGENRE=Country
TTITLE0=I threw it all away
TTITLE1=Going going gone
TTITLE2=One more cup of coffee
TTITLE3=Tomorrow is a long time
TTITLE4=Mozambique
TTITLE5=Lay lady lay
TTITLE6=Idiot blues
TTITLE7=Maggie's farm
TTITLE8=One too many mornings
TTITLE9=Seven days
TTITLE10=Just like Tom Thumb's blues
TTITLE11=It takes a lot to laugh
TTITLE12=You angel you
TTITLE13=Just like a woman
TTITLE14=Tangled up in blue
TTITLE15=The sun is shining
TTITLE16=Seven days (Spanish rider demo)
EXTD=
EXTT0=
EXTT1=
EXTT2=
EXTT3=
EXTT4=
EXTT5=
EXTT6=
EXTT7=
EXTT8=
EXTT9=
EXTT10=
EXTT11=
EXTT12=
EXTT13=
EXTT14=
EXTT15=
EXTT16=
PLAYORDER=
